<?xml version="1.0" encoding="UTF-8" standalone="no"?>
<!-- Created with Inkscape (http://www.inkscape.org/) -->

<svg
   width="100mm"
   height="148mm"
   viewBox="0 0 100 148"
   version="1.1"
   id="svg5"
   inkscape:version="1.2.1 (9c6d41e410, 2022-07-14)"
   sodipodi:docname="NameCardBG.svg"
   xml:space="preserve"
   xmlns:inkscape="http://www.inkscape.org/namespaces/inkscape"
   xmlns:sodipodi="http://sodipodi.sourceforge.net/DTD/sodipodi-0.dtd"
   xmlns="http://www.w3.org/2000/svg"
   xmlns:svg="http://www.w3.org/2000/svg"><sodipodi:namedview
     id="namedview7"
     pagecolor="#505050"
     bordercolor="#ffffff"
     borderopacity="1"
     inkscape:showpageshadow="0"
     inkscape:pageopacity="0"
     inkscape:pagecheckerboard="1"
     inkscape:deskcolor="#505050"
     inkscape:document-units="mm"
     showgrid="false"
     inkscape:zoom="2.0470873"
     inkscape:cx="136.53546"
     inkscape:cy="280.3984"
     inkscape:window-width="1920"
     inkscape:window-height="1129"
     inkscape:window-x="1912"
     inkscape:window-y="-8"
     inkscape:window-maximized="1"
     inkscape:current-layer="layer1" /><defs
     id="defs2"><linearGradient
       id="linearGradient902"
       inkscape:swatch="solid"><stop
         style="stop-color:#7a0000;stop-opacity:1;"
         offset="0"
         id="stop900" /></linearGradient><linearGradient
       id="linearGradient882"
       inkscape:swatch="solid"><stop
         style="stop-color:#000000;stop-opacity:1;"
         offset="0"
         id="stop880" /></linearGradient><clipPath
       clipPathUnits="userSpaceOnUse"
       id="clipPath1250"><rect
         style="display:inline;fill:none;stroke-width:0.262922;image-rendering:auto"
         id="rect1252"
         width="99.497261"
         height="147.25595"
         x="0.68950337"
         y="0.70886195"
         inkscape:label="outline" /></clipPath><clipPath
       clipPathUnits="userSpaceOnUse"
       id="clipPath1254"><rect
         style="display:inline;fill:none;stroke-width:0.262922;image-rendering:auto"
         id="rect1256"
         width="99.497261"
         height="147.25595"
         x="0.68950337"
         y="0.70886195"
         inkscape:label="outline" /></clipPath><clipPath
       clipPathUnits="userSpaceOnUse"
       id="clipPath1258"><rect
         style="display:inline;fill:none;stroke-width:0.262922;image-rendering:auto"
         id="rect1260"
         width="99.497261"
         height="147.25595"
         x="0.68950337"
         y="0.70886195"
         inkscape:label="outline" /></clipPath><clipPath
       clipPathUnits="userSpaceOnUse"
       id="clipPath1262"><rect
         style="display:inline;fill:none;stroke-width:0.262922;image-rendering:auto"
         id="rect1264"
         width="99.497261"
         height="147.25595"
         x="0.68950337"
         y="0.70886195"
         inkscape:label="outline" /></clipPath><clipPath
       clipPathUnits="userSpaceOnUse"
       id="clipPath1266"><rect
         style="display:inline;fill:none;stroke-width:0.262922;image-rendering:auto"
         id="rect1268"
         width="99.497261"
         height="147.25595"
         x="0.68950337"
         y="0.70886195"
         inkscape:label="outline" /></clipPath><clipPath
       clipPathUnits="userSpaceOnUse"
       id="clipPath1270"><rect
         style="display:inline;fill:none;stroke-width:0.262922;image-rendering:auto"
         id="rect1272"
         width="99.497261"
         height="147.25595"
         x="0.68950337"
         y="0.70886195"
         inkscape:label="outline" /></clipPath><clipPath
       clipPathUnits="userSpaceOnUse"
       id="clipPath5832"><rect
         style="display:inline;fill:none;stroke-width:0.21392;image-rendering:auto"
         id="rect5834"
         width="99.497261"
         height="97.481537"
         x="0.68950337"
         y="0.70886195"
         inkscape:label="BG White" /></clipPath><clipPath
       clipPathUnits="userSpaceOnUse"
       id="clipPath5836"><rect
         style="display:inline;fill:none;stroke-width:0.21392;image-rendering:auto"
         id="rect5838"
         width="99.497261"
         height="97.481537"
         x="0.68950337"
         y="0.70886195"
         inkscape:label="BG White" /></clipPath><clipPath
       clipPathUnits="userSpaceOnUse"
       id="clipPath5840"><rect
         style="display:inline;fill:none;stroke-width:0.21392;image-rendering:auto"
         id="rect5842"
         width="99.497261"
         height="97.481537"
         x="0.68950337"
         y="0.70886195"
         inkscape:label="BG White" /></clipPath><clipPath
       clipPathUnits="userSpaceOnUse"
       id="clipPath5844"><rect
         style="display:inline;fill:none;stroke-width:0.21392;image-rendering:auto"
         id="rect5846"
         width="99.497261"
         height="97.481537"
         x="0.68950337"
         y="0.70886195"
         inkscape:label="BG White" /></clipPath><clipPath
       clipPathUnits="userSpaceOnUse"
       id="clipPath5848"><rect
         style="display:inline;fill:none;stroke-width:0.21392;image-rendering:auto"
         id="rect5850"
         width="99.497261"
         height="97.481537"
         x="0.68950337"
         y="0.70886195"
         inkscape:label="BG White" /></clipPath><clipPath
       clipPathUnits="userSpaceOnUse"
       id="clipPath5852"><rect
         style="display:inline;fill:none;stroke-width:0.21392;image-rendering:auto"
         id="rect5854"
         width="99.497261"
         height="97.481537"
         x="0.68950337"
         y="0.70886195"
         inkscape:label="BG White" /></clipPath></defs><g
     inkscape:label="Background"
     inkscape:groupmode="layer"
     id="layer1"><rect
       style="display:inline;fill:#ffffff;stroke-width:0.26425;image-rendering:auto"
       id="rect2934"
       width="100"
       height="148"
       x="2.7755576e-17"
       y="0"
       inkscape:label="BG White" /><g
       id="g1225"
       transform="matrix(1.0050528,0,0,1.0050528,-0.69298727,-0.71244371)"
       inkscape:label="Arch"><path
         style="fill:#ff6600;stroke:none;stroke-width:4.34484;stroke-dasharray:none"
         id="path527-9-7-5-5"
         inkscape:label="path527"
         sodipodi:type="arc"
         sodipodi:cx="136.8179"
         sodipodi:cy="139.69434"
         sodipodi:rx="196.17799"
         sodipodi:ry="193.59703"
         sodipodi:start="3.4174923"
         sodipodi:end="4.4808506"
         sodipodi:arc-type="slice"
         d="M -51.940741,86.956052 A 196.17799,193.59703 0 0 1 91.799932,-48.736466 L 136.8179,139.69434 Z"
         clip-path="url(#clipPath5852)" /><path
         style="fill:#ff7f2a;stroke:none;stroke-width:4.06276;stroke-dasharray:none"
         id="path527-9-7-5-5-9"
         inkscape:label="path527"
         sodipodi:type="arc"
         sodipodi:cx="137.14937"
         sodipodi:cy="139.39409"
         sodipodi:rx="183.44191"
         sodipodi:ry="181.02852"
         sodipodi:start="3.4174923"
         sodipodi:end="4.4808506"
         sodipodi:arc-type="slice"
         d="M -39.354862,90.079627 A 183.44191,181.02852 0 0 1 95.054014,-36.803598 L 137.14937,139.39409 Z"
         clip-path="url(#clipPath5848)" /><path
         style="fill:#ff9955;stroke:none;stroke-width:3.84524;stroke-dasharray:none"
         id="path527-9-7-5"
         inkscape:label="path527"
         sodipodi:type="arc"
         sodipodi:cx="136.26729"
         sodipodi:cy="140.20036"
         sodipodi:rx="172.47444"
         sodipodi:ry="172.47444"
         sodipodi:start="3.4174923"
         sodipodi:end="4.4808506"
         sodipodi:arc-type="slice"
         d="M -29.684258,93.21614 A 172.47444,172.47444 0 0 1 96.688695,-27.671516 L 136.26729,140.20036 Z"
         clip-path="url(#clipPath5844)" /><path
         style="fill:#ffb380;stroke:none;stroke-width:3.64875;stroke-dasharray:none"
         id="path527-9-7"
         inkscape:label="path527"
         sodipodi:type="arc"
         sodipodi:cx="136.34445"
         sodipodi:cy="140.7972"
         sodipodi:rx="163.66122"
         sodipodi:ry="163.66122"
         sodipodi:start="3.4174923"
         sodipodi:end="4.4808506"
         sodipodi:arc-type="slice"
         d="M -21.127189,96.213804 A 163.66122,163.66122 0 0 1 98.788272,-18.496652 L 136.34445,140.7972 Z"
         clip-path="url(#clipPath5840)" /><path
         style="fill:#ffccaa;stroke:none;stroke-width:3.45419;stroke-dasharray:none"
         id="path527-9"
         inkscape:label="path527"
         sodipodi:type="arc"
         sodipodi:cx="136.31453"
         sodipodi:cy="140.70639"
         sodipodi:rx="154.93434"
         sodipodi:ry="154.93434"
         sodipodi:start="3.4174923"
         sodipodi:end="4.4808506"
         sodipodi:arc-type="slice"
         d="M -12.760275,98.500313 A 154.93434,154.93434 0 0 1 100.76095,-10.093455 l 35.55358,150.799845 z"
         clip-path="url(#clipPath5836)" /><path
         style="display:inline;fill:#ffffff;stroke:none;stroke-width:3.25456;stroke-dasharray:none"
         id="path527"
         inkscape:label="path527"
         sodipodi:type="arc"
         sodipodi:cx="137"
         sodipodi:cy="141"
         sodipodi:rx="146"
         sodipodi:ry="146"
         sodipodi:start="3.4174923"
         sodipodi:end="4.4808506"
         sodipodi:arc-type="slice"
         d="M -3.4783547,101.22775 A 146,146 0 0 1 103.49663,-1.1039209 L 137,141 Z"
         clip-path="url(#clipPath5832)" /></g><rect
       style="fill:#ffffff;stroke:none;stroke-width:3.27099"
       id="rect6486"
       width="100"
       height="5"
       x="0"
       y="95" /></g><g
     inkscape:groupmode="layer"
     id="layer2"
     inkscape:label="Bottom"
     style="display:inline;fill:#ffe6d5"
     transform="translate(0.54885175,-0.36590116)"><text
       xml:space="preserve"
       style="font-style:normal;font-variant:normal;font-weight:normal;font-stretch:normal;font-size:9.61463px;line-height:125%;font-family:Arial;-inkscape-font-specification:Arial;letter-spacing:0px;word-spacing:0px;fill:#ffe6d5;fill-opacity:1;stroke:none;stroke-width:0.240366px;stroke-linecap:butt;stroke-linejoin:miter;stroke-opacity:1"
       x="43.477909"
       y="139.81718"
       id="text412"><tspan
         sodipodi:role="line"
         id="tspan410"
         style="font-style:normal;font-variant:normal;font-weight:bold;font-stretch:normal;font-size:11.5376px;font-family:'Century Gothic';-inkscape-font-specification:'Century Gothic Bold';stroke-width:0.240366px;fill:#ffe6d5"
         x="43.477909"
         y="139.81718">2023 Tiny</tspan></text><g
       id="g345"
       transform="matrix(0.05240791,0,0,0.05240791,-11.057859,116.42662)"
       inkscape:label="Logo"
       style="fill:#ffe6d5">
	<polygon
   points="965.648,403.474 965.648,390.977 953.141,390.977 953.141,390.975 965.648,378.47 965.648,328.472 954.654,339.458 928.134,365.975 928.134,390.977 915.63,390.977 915.63,403.474 915.63,415.979 928.134,415.979 928.134,440.976 940.64,440.976 953.141,440.976 953.141,415.979 965.648,415.979 "
   id="polygon335"
   style="fill:#ffe6d5" />
	<path
   d="m 315.634,253.474 v 300 L 453.132,415.979 v 24.997 h 25 v -49.999 l 12.497,-12.498 v 24.995 37.502 h 12.503 12.497 v -0.002 h 0.009 l 24.995,-24.994 v 24.994 0.002 h 12.499 12.498 v -0.002 h 0.01 l 24.993,-24.994 v 24.994 0.002 h 12.504 12.498 v -37.502 -37.499 h -12.498 -12.504 l -25.003,25.004 v -25.004 h -12.498 -12.499 l -25.004,25.004 v -25.004 h -12.497 l 112.501,-112.5 H 315.634 Z m 149.999,112.501 c -6.9,0 -12.501,-5.596 -12.501,-12.498 0,-6.907 5.601,-12.498 12.501,-12.498 6.902,0 12.499,5.59 12.499,12.498 0,6.902 -5.597,12.498 -12.499,12.498 z"
   id="path337"
   style="fill:#ffe6d5" />
	<polygon
   points="890.634,440.976 903.137,440.976 903.137,403.474 903.137,365.975 890.634,365.975 878.128,365.975 853.134,390.979 853.134,365.975 840.64,365.975 828.138,365.975 828.138,403.474 828.138,440.976 840.64,440.976 853.134,440.976 853.134,440.974 853.143,440.974 878.128,415.979 878.128,440.974 878.128,440.976 "
   id="polygon339"
   style="fill:#ffe6d5" />
	<path
   d="m 751.614,376.961 c 14.648,-14.648 38.385,-14.649 53.034,-0.003 l 79.544,-79.552 c -58.572,-58.573 -153.551,-58.581 -212.123,0 -58.585,58.578 -58.585,153.557 0,212.13 l 79.545,-79.545 c -14.643,-14.647 -14.643,-38.386 0,-53.03 z"
   id="path341"
   style="fill:#ffe6d5" />
	<path
   d="m 751.614,429.991 c 14.646,14.644 38.387,14.644 53.034,0.001 14.644,-14.648 14.644,-38.387 0,-53.034 z"
   id="path343"
   style="fill:#ffe6d5" />
</g></g></svg>
